<?xml version="1.0" encoding="utf-8"?>
<!-- Generator: Adobe Illustrator 22.0.1, SVG Export Plug-In . SVG Version: 6.00 Build 0)  -->
<svg version="1.1" id="Layer_1" xmlns="http://www.w3.org/2000/svg" xmlns:xlink="http://www.w3.org/1999/xlink" x="0px" y="0px"
	 viewBox="0 0 70 70" style="enable-background:new 0 0 70 70;" xml:space="preserve">
<style type="text/css">
	.st0{fill:#333333;}
</style>
<path class="st0" d="M35,13l-6.3,12.8l-1.2,2.4l-2.6,0.4l-14.2,2.1l10.2,10l1.9,1.8L22.4,45L20,59.1l12.7-6.7l2.3-1.2l2.3,1.2
	L50,59.1L47.6,45l-0.4-2.6l1.9-1.8l10.2-10l-14.2-2.1l-2.6-0.4l-1.2-2.4L35,13 M35,1.7l10.8,21.9L70,27.1L52.5,44.2l4.1,24.1
	L35,56.9L13.4,68.3l4.1-24.1L0,27.1l24.2-3.5L35,1.7z"/>
</svg>
