<svg xmlns="http://www.w3.org/2000/svg" xmlns:xlink="http://www.w3.org/1999/xlink" width="120" height="120" viewBox="0 0 120 120">
  <defs>
    <clipPath id="clip-path">
      <rect id="Rectangle_23" data-name="Rectangle 23" width="120" height="120" transform="translate(130 564)" fill="#7c7c7c"/>
    </clipPath>
  </defs>
  <g id="Mask_Group_22" data-name="Mask Group 22" transform="translate(-130 -564)" clip-path="url(#clip-path)">
    <g id="logout" transform="translate(142.36 576.319)">
      <g id="Group_22" data-name="Group 22" transform="translate(0 0.199)">
        <g id="Group_21" data-name="Group 21">
          <path id="Path_31" data-name="Path 31" d="M47.482,87.249H11.87a3.958,3.958,0,0,1-3.957-3.957V12.07A3.958,3.958,0,0,1,11.87,8.113H47.482a3.957,3.957,0,0,0,0-7.914H11.87A11.885,11.885,0,0,0,0,12.07V83.292a11.885,11.885,0,0,0,11.87,11.87H47.482a3.957,3.957,0,0,0,0-7.913Z" transform="translate(0 -0.199)"/>
        </g>
      </g>
      <g id="Group_24" data-name="Group 24" transform="translate(31.654 19.984)">
        <g id="Group_23" data-name="Group 23">
          <path id="Path_32" data-name="Path 32" d="M102.313,50,78.256,26.256A3.956,3.956,0,1,0,72.7,31.89L89.893,48.857H43.824a3.957,3.957,0,0,0,0,7.914H89.893L72.7,73.737a3.956,3.956,0,1,0,5.555,5.634l24.057-23.741a3.955,3.955,0,0,0,0-5.634Z" transform="translate(-39.867 -25.117)"/>
        </g>
      </g>
    </g>
  </g>
</svg>
