<svg xmlns="http://www.w3.org/2000/svg" xmlns:xlink="http://www.w3.org/1999/xlink" width="120" height="120" viewBox="0 0 120 120">
  <defs>
    <clipPath id="clip-path">
      <rect id="Rectangle_23" data-name="Rectangle 23" width="120" height="120" transform="translate(130 564)" fill="#7c7c7c"/>
    </clipPath>
  </defs>
  <g id="Mask_Group_19" data-name="Mask Group 19" transform="translate(-130 -564)" clip-path="url(#clip-path)">
    <path id="blog" d="M97.476,0H3.962A3.962,3.962,0,0,0,0,3.962V97.476a3.962,3.962,0,0,0,3.962,3.962H97.476a3.962,3.962,0,0,0,3.962-3.962V3.962A3.962,3.962,0,0,0,97.476,0ZM93.514,93.514H7.925V24.963H93.514Zm0-76.475H7.925V7.925H93.514ZM18.425,79.051H51.548a3.962,3.962,0,0,0,3.962-3.962v-31.7a3.962,3.962,0,0,0-3.962-3.962H18.425a3.962,3.962,0,0,0-3.962,3.962v31.7A3.962,3.962,0,0,0,18.425,79.051Zm3.962-31.7h25.2V71.126h-25.2ZM64.56,59.239a3.962,3.962,0,0,1,3.962-3.962H83.013a3.962,3.962,0,0,1,0,7.925H68.522A3.962,3.962,0,0,1,64.56,59.239Zm0,15.85a3.962,3.962,0,0,1,3.962-3.962H83.013a3.962,3.962,0,0,1,0,7.925H68.522A3.962,3.962,0,0,1,64.56,75.088Zm0,0" transform="translate(139.281 573.281)"/>
  </g>
</svg>
