<svg xmlns="http://www.w3.org/2000/svg" xmlns:xlink="http://www.w3.org/1999/xlink" width="120" height="120" viewBox="0 0 120 120">
  <defs>
    <clipPath id="clip-path">
      <rect id="Rectangle_23" data-name="Rectangle 23" width="120" height="120" transform="translate(130 564)" fill="#7c7c7c"/>
    </clipPath>
  </defs>
  <g id="Mask_Group_23" data-name="Mask Group 23" transform="translate(-130 -564)" clip-path="url(#clip-path)">
    <g id="information" transform="translate(130 564)">
      <g id="Group_26" data-name="Group 26">
        <g id="Group_25" data-name="Group 25">
          <path id="Path_33" data-name="Path 33" d="M73.445,25.17A13.193,13.193,0,0,0,63.5,21.058c-7.135,0-13.512,4.871-14.217,10.866a9.494,9.494,0,0,0,2.4,7.489,13.085,13.085,0,0,0,9.855,4.037c7.32,0,13.6-4.773,14.305-10.859A9.4,9.4,0,0,0,73.445,25.17Zm-3.326,6.753c-.36,3.125-4.291,5.766-8.584,5.766a7.473,7.473,0,0,1-5.554-2.109,3.7,3.7,0,0,1-.974-2.99c.362-3.075,4.331-5.772,8.5-5.772A7.575,7.575,0,0,1,69.14,29,3.7,3.7,0,0,1,70.119,31.923Z"/>
        </g>
      </g>
      <g id="Group_28" data-name="Group 28">
        <g id="Group_27" data-name="Group 27">
          <path id="Path_34" data-name="Path 34" d="M70.723,86.6c-.72-.483-2.405-1.613-1.045-9.46.035-.171.172-.8.384-1.787.483-2.24,1.382-6.409,2.359-11.058,0-.01,0-.021.007-.031,1-5.024.208-9.419-2.282-12.711a13.621,13.621,0,0,0-10.02-5.129c-6.231-.5-12.749,3.22-14.746,6.881a3.566,3.566,0,0,0-.133,3.583,4.586,4.586,0,0,0,1.52,1.57c.708.5,2.366,1.679.791,9.509-.147.716-2.344,11.883-2.634,13.468l-.006.032c-.865,5.048-.01,9.461,2.614,12.647A14.29,14.29,0,0,0,58.437,99c5.993,0,11.983-3.722,13.807-7.284a3.563,3.563,0,0,0,.039-3.585A4.58,4.58,0,0,0,70.723,86.6ZM66.779,63.125c-.972,4.627-1.868,8.779-2.349,11.011-.327,1.517-.394,1.826-.417,1.952,0,.01,0,.02-.005.031-1.462,8.406.018,12.084,2.112,14.142a11.325,11.325,0,0,1-2.327,1.563,11.828,11.828,0,0,1-5.8,1.4,7.863,7.863,0,0,1-5.957-2.707c-1.518-1.9-2.016-4.688-1.44-8.062.313-1.706,2.512-12.876,2.6-13.32,0-.01,0-.019.006-.029,1.682-8.364.3-12.081-1.741-14.193a11.324,11.324,0,0,1,2.367-1.5,11.832,11.832,0,0,1,5.838-1.247,7.862,7.862,0,0,1,5.884,2.862C67.019,56.966,67.443,59.767,66.779,63.125Z"/>
        </g>
      </g>
      <g id="Group_30" data-name="Group 30">
        <g id="Group_29" data-name="Group 29">
          <path id="Path_35" data-name="Path 35" d="M107.722,92.569A52.066,52.066,0,0,0,120,59.3c0-14.713-6.276-28.53-17.671-38.906A62.565,62.565,0,0,0,60,4.407,62.566,62.566,0,0,0,17.671,20.391C6.276,30.766,0,44.583,0,59.3S6.276,87.826,17.671,98.2A62.564,62.564,0,0,0,60,114.185a64.517,64.517,0,0,0,28.563-6.606l20.911,7.831a2.88,2.88,0,0,0,3.78-3.489ZM89.4,101.74a2.881,2.881,0,0,0-2.344.144A58.611,58.611,0,0,1,60,108.425C30.092,108.425,5.76,86.386,5.76,59.3S30.092,10.167,60,10.167s54.24,22.039,54.24,49.129a45.811,45.811,0,0,1-11.872,30.667,2.879,2.879,0,0,0-.611,2.7l4.387,15.351Z"/>
        </g>
      </g>
    </g>
  </g>
</svg>
