<svg xmlns="http://www.w3.org/2000/svg" xmlns:xlink="http://www.w3.org/1999/xlink" width="70" height="70" viewBox="0 0 70 70">
  <defs>
    <clipPath id="clip-path">
      <rect id="Rectangle_2" data-name="Rectangle 2" width="70" height="70" transform="translate(125 216)" fill="#0011ea" opacity="0.64"/>
    </clipPath>
  </defs>
  <g id="Menu_Icon" data-name="Menu Icon" transform="translate(-125 -216)" clip-path="url(#clip-path)">
    <path id="Union_1" data-name="Union 1" d="M-2962,60a10,10,0,0,1,10-10,10,10,0,0,1,10,10,10,10,0,0,1-10,10A10,10,0,0,1-2962,60Zm-50,0a10,10,0,0,1,10-10,10,10,0,0,1,10,10,10,10,0,0,1-10,10A10,10,0,0,1-3012,60Zm50-50a10,10,0,0,1,10-10,10,10,0,0,1,10,10,10,10,0,0,1-10,10A10,10,0,0,1-2962,10Zm-50,0a10,10,0,0,1,10-10,10,10,0,0,1,10,10,10,10,0,0,1-10,10A10,10,0,0,1-3012,10Z" transform="translate(3137 216)" fill="#0011ea"/>
  </g>
</svg>
